<svg width="40" height="40" viewBox="0 0 40 40" fill="none" xmlns="http://www.w3.org/2000/svg">
<path fill-rule="evenodd" clip-rule="evenodd" d="M39.9982 20C39.9982 23.9555 38.8253 27.8221 36.6278 31.1109C34.4302 34.3998 31.3068 36.9631 27.6524 38.4768C23.9981 39.9905 19.9769 40.3865 16.0975 39.6149C12.218 38.8432 8.6545 36.9385 5.85756 34.1415C3.06063 31.3446 1.1559 27.7811 0.384226 23.9016C-0.387446 20.0222 0.00860432 16.001 1.52229 12.3467C3.03598 8.69229 5.59932 5.56885 8.88817 3.37131C12.177 1.17378 16.0436 0.000846863 19.9991 0.000846863C25.3032 0.000846863 30.3901 2.10789 34.1406 5.85846C37.8912 9.60903 39.9982 14.6959 39.9982 20Z" fill="#5143D9"/>
<path fill-rule="evenodd" clip-rule="evenodd" d="M32.848 20.0219L33.3269 19.5421C33.3605 19.5085 33.3872 19.4687 33.4054 19.4248C33.4236 19.3809 33.433 19.3339 33.4331 19.2863C33.4331 19.2388 33.4238 19.1918 33.4057 19.1479C33.3875 19.104 33.3609 19.064 33.3273 19.0304C33.2938 18.9968 33.2539 18.9701 33.21 18.9519C33.1661 18.9337 33.1191 18.9243 33.0716 18.9242C33.0241 18.9242 32.977 18.9335 32.9331 18.9517C32.8892 18.9698 32.8493 18.9964 32.8157 19.03L32.7761 19.0695L32.6231 17.0309L33.104 16.5488C33.1719 16.481 33.2101 16.389 33.2101 16.293C33.2102 16.1971 33.1722 16.105 33.1044 16.0371C33.0366 15.9692 32.9446 15.931 32.8486 15.9309C32.7527 15.9308 32.6606 15.9689 32.5927 16.0367L32.5508 16.0786L32.3687 13.6647C33.6893 12.4167 34.7356 11.4233 34.9723 11.1862C35.9082 10.2485 35.6131 8.82757 35.4691 8.68353C35.3251 8.5395 33.9068 8.24355 32.9708 9.18122C32.7341 9.41837 31.7425 10.4664 30.4966 11.7894L28.0862 11.6069L28.1282 11.5649C28.1618 11.5314 28.1885 11.4915 28.2067 11.4476C28.225 11.4038 28.2344 11.3567 28.2344 11.3092C28.2344 11.2617 28.2251 11.2146 28.207 11.1707C28.1888 11.1268 28.1622 11.0869 28.1286 11.0533C28.0951 11.0196 28.0552 10.993 28.0113 10.9747C27.9675 10.9565 27.9204 10.9471 27.8729 10.9471C27.8254 10.947 27.7783 10.9564 27.7344 10.9745C27.6905 10.9926 27.6506 11.0193 27.617 11.0528L27.1361 11.535L25.1012 11.382L25.1408 11.3424C25.2087 11.2746 25.2469 11.1826 25.247 11.0867C25.2471 10.9907 25.209 10.8987 25.1412 10.8308C25.0734 10.7629 24.9814 10.7247 24.8855 10.7246C24.7895 10.7245 24.6975 10.7625 24.6296 10.8303L24.1507 11.3101L21.0046 11.0712L20.299 11.778L26.0444 13.437L27.6922 14.7731C26.2173 16.5383 23.8989 19.207 23.8989 19.207L20.7814 18.8392L20.3052 19.315L22.5525 20.6994C22.4834 20.7618 22.4323 20.8415 22.4044 20.9303C22.3765 21.019 22.373 21.1137 22.394 21.2043C21.9621 21.6371 22.1492 22.0266 22.1492 22.0266C22.1492 22.0266 22.5381 22.2141 22.9702 21.7813C23.0605 21.8023 23.1548 21.7986 23.2432 21.7707C23.3316 21.7428 23.4109 21.6916 23.4729 21.6227L24.8553 23.8739L25.3305 23.3979L24.9633 20.2747C24.9633 20.2747 27.6273 17.9524 29.3894 16.4749L30.7226 18.1255L32.3785 23.8811L33.0843 23.1743L32.848 20.0219ZM15.5301 27.3175C14.4521 28.0733 13.3542 28.7946 12.2358 29.468C11.1297 30.1402 9.98941 30.7544 8.81952 31.3081C8.24097 31.5787 7.65761 31.8262 7.07468 32.0399C6.51226 32.2502 5.93514 32.4189 5.34798 32.5446C5.08249 32.6 4.81341 32.6365 4.54277 32.6539C4.32253 32.6705 4.10108 32.6596 3.88356 32.6213C3.81253 32.6066 3.74333 32.5841 3.67723 32.5542C3.64567 32.5402 3.61876 32.5174 3.59964 32.4886C3.59868 32.4855 3.59843 32.4823 3.5989 32.4791C3.59936 32.4758 3.60054 32.4728 3.60234 32.4701C3.60414 32.4674 3.60652 32.4651 3.6093 32.4635C3.61208 32.4618 3.61521 32.4608 3.61843 32.4604C3.62515 32.4596 3.63133 32.4564 3.6359 32.4514C3.64046 32.4464 3.6431 32.4399 3.64335 32.4331C3.64882 32.3986 3.63811 32.2801 3.65581 32.1075C3.66259 32.0397 3.67373 31.9636 3.6875 31.8841C2.66449 30.3973 1.88115 28.7591 1.36607 27.0294C1.15996 27.5308 0.968056 28.0453 0.795385 28.578C0.547485 29.3267 0.371398 30.0973 0.269506 30.8793C0.21404 31.3288 0.202985 31.7827 0.236502 32.2344C0.25727 32.4949 0.299599 32.7532 0.363054 33.0067C0.43325 33.2948 0.537437 33.5736 0.673423 33.8372C0.974522 34.4286 1.45052 34.9128 2.03664 35.224C2.30235 35.3615 2.58435 35.4648 2.87595 35.5316C3.1298 35.5866 3.38811 35.6186 3.64772 35.6271C4.09107 35.636 4.53395 35.5934 4.96745 35.5001C5.35152 35.419 5.72964 35.3118 6.0992 35.1795C6.78275 34.9319 7.44717 34.6344 8.0871 34.2894C8.71068 33.957 9.30628 33.5994 9.88418 33.2248C11.023 32.4793 12.1223 31.675 13.1776 30.8153C14.2267 29.967 15.2381 29.0818 16.2186 28.1706C18.1665 26.3494 20.0178 24.4274 21.7648 22.4126C19.7736 24.1553 17.6925 25.7925 15.5301 27.3175Z" fill="white"/>
</svg>
