<svg width="44" height="43" viewBox="0 0 44 43" fill="none" xmlns="http://www.w3.org/2000/svg">
<rect x="0.920044" y="1.7" width="40.59" height="40.59" rx="7.5" fill="#F5F5F6"/>
<rect x="0.920044" y="1.7" width="40.59" height="40.59" rx="7.5" stroke="#F5F5F6"/>
<g clip-path="url(#clip0_2_882)">
<path d="M20.1494 29.6C20.6045 29.6 20.9885 29.4436 21.3014 29.1307C21.6143 28.8178 21.7707 28.4338 21.7707 27.9787H18.5707C18.5707 28.4338 18.7201 28.8178 19.0187 29.1307C19.3174 29.4436 19.6943 29.6 20.1494 29.6ZM20.1494 18.336L19.5094 18.464C18.7698 18.6062 18.1583 18.976 17.6747 19.5733C17.1912 20.1707 16.9494 20.8391 16.9494 21.5787C16.9494 21.8916 16.9209 22.304 16.8641 22.816C16.8072 23.4418 16.7076 24.0391 16.5654 24.608C16.4232 25.3191 16.2525 25.9164 16.0534 26.4H24.2454C24.0463 25.9164 23.8756 25.3191 23.7334 24.608C23.5912 24.0391 23.4916 23.4418 23.4347 22.816C23.3778 22.304 23.3494 21.9058 23.3494 21.6213C23.3494 20.8533 23.1076 20.1707 22.6241 19.5733C22.1405 18.976 21.5289 18.6062 20.7894 18.464L20.1494 18.336ZM25.1414 26.4C25.3121 26.7698 25.5112 27.04 25.7387 27.2107H14.5601C14.7876 27.04 14.9867 26.7698 15.1574 26.4C15.4703 25.7742 15.7263 24.8782 15.9254 23.712C16.0676 22.8302 16.1387 22.1191 16.1387 21.5787C16.1387 20.64 16.4445 19.8009 17.0561 19.0613C17.6676 18.3218 18.4285 17.8667 19.3387 17.696C19.3387 17.5253 19.3743 17.376 19.4454 17.248C19.5165 17.12 19.6161 17.0133 19.7441 16.928C19.8721 16.8427 20.0072 16.8 20.1494 16.8C20.2916 16.8 20.4267 16.8427 20.5547 16.928C20.6827 17.0133 20.7823 17.12 20.8534 17.248C20.9245 17.376 20.9601 17.5253 20.9601 17.696C21.8703 17.8667 22.6312 18.3218 23.2427 19.0613C23.8543 19.8009 24.1601 20.6542 24.1601 21.6213C24.1601 22.1333 24.2312 22.8302 24.3734 23.712C24.5725 24.8782 24.8285 25.7742 25.1414 26.4Z" fill="#0B0A12"/>
</g>
<rect x="33.02" y="0.199997" width="10" height="10" rx="5" fill="#D6293E"/>
<defs>
<clipPath id="clip0_2_882">
<rect width="13.3" height="12.8" fill="white" transform="matrix(1 0 0 -1 14.5601 29.6)"/>
</clipPath>
</defs>
</svg>
