<svg width="561" height="160" viewBox="0 0 561 160" fill="none" xmlns="http://www.w3.org/2000/svg">
<path d="M33.216 17.072V25.84H14.912V35.312H28.608V43.824H14.912V62H3.968V17.072H33.216ZM44.472 22.576C42.552 22.576 40.9733 22.0213 39.736 20.912C38.5413 19.76 37.944 18.352 37.944 16.688C37.944 14.9813 38.5413 13.5733 39.736 12.464C40.9733 11.312 42.552 10.736 44.472 10.736C46.3493 10.736 47.8853 11.312 49.08 12.464C50.3173 13.5733 50.936 14.9813 50.936 16.688C50.936 18.352 50.3173 19.76 49.08 20.912C47.8853 22.0213 46.3493 22.576 44.472 22.576ZM49.912 26.288V62H38.968V26.288H49.912ZM79.603 25.904C83.7843 25.904 87.1123 27.2693 89.587 30C92.1043 32.688 93.363 36.4 93.363 41.136V62H82.483V42.608C82.483 40.2187 81.8643 38.3627 80.627 37.04C79.3897 35.7173 77.7257 35.056 75.635 35.056C73.5443 35.056 71.8803 35.7173 70.643 37.04C69.4057 38.3627 68.787 40.2187 68.787 42.608V62H57.843V26.288H68.787V31.024C69.8963 29.4453 71.3897 28.208 73.267 27.312C75.1443 26.3733 77.2563 25.904 79.603 25.904ZM98.792 44.08C98.792 40.4107 99.4747 37.1893 100.84 34.416C102.248 31.6427 104.147 29.5093 106.536 28.016C108.925 26.5227 111.592 25.776 114.536 25.776C116.883 25.776 119.016 26.2667 120.936 27.248C122.899 28.2293 124.435 29.552 125.544 31.216V14.64H136.488V62H125.544V56.88C124.52 58.5867 123.048 59.952 121.128 60.976C119.251 62 117.053 62.512 114.536 62.512C111.592 62.512 108.925 61.7653 106.536 60.272C104.147 58.736 102.248 56.5813 100.84 53.808C99.4747 50.992 98.792 47.7493 98.792 44.08ZM125.544 44.144C125.544 41.4133 124.776 39.2587 123.24 37.68C121.747 36.1013 119.912 35.312 117.736 35.312C115.56 35.312 113.704 36.1013 112.168 37.68C110.675 39.216 109.928 41.3493 109.928 44.08C109.928 46.8107 110.675 48.9867 112.168 50.608C113.704 52.1867 115.56 52.976 117.736 52.976C119.912 52.976 121.747 52.1867 123.24 50.608C124.776 49.0293 125.544 46.8747 125.544 44.144ZM177.872 52.72V62H172.304C168.336 62 165.243 61.04 163.024 59.12C160.805 57.1573 159.696 53.9787 159.696 49.584V35.376H155.344V26.288H159.696V17.584H170.64V26.288H177.808V35.376H170.64V49.712C170.64 50.7787 170.896 51.5467 171.408 52.016C171.92 52.4853 172.773 52.72 173.968 52.72H177.872ZM205.92 25.904C210.016 25.904 213.301 27.2693 215.776 30C218.251 32.688 219.488 36.4 219.488 41.136V62H208.608V42.608C208.608 40.2187 207.989 38.3627 206.752 37.04C205.515 35.7173 203.851 35.056 201.76 35.056C199.669 35.056 198.005 35.7173 196.768 37.04C195.531 38.3627 194.912 40.2187 194.912 42.608V62H183.968V14.64H194.912V31.088C196.021 29.5093 197.536 28.2507 199.456 27.312C201.376 26.3733 203.531 25.904 205.92 25.904ZM260.757 43.568C260.757 44.592 260.693 45.6587 260.565 46.768H235.797C235.968 48.9867 236.672 50.6933 237.909 51.888C239.189 53.04 240.746 53.616 242.581 53.616C245.312 53.616 247.21 52.464 248.277 50.16H259.925C259.328 52.5067 258.24 54.6187 256.661 56.496C255.125 58.3733 253.184 59.8453 250.837 60.912C248.49 61.9787 245.866 62.512 242.965 62.512C239.466 62.512 236.352 61.7653 233.621 60.272C230.89 58.7787 228.757 56.6453 227.221 53.872C225.685 51.0987 224.917 47.856 224.917 44.144C224.917 40.432 225.664 37.1893 227.157 34.416C228.693 31.6427 230.826 29.5093 233.557 28.016C236.288 26.5227 239.424 25.776 242.965 25.776C246.421 25.776 249.493 26.5013 252.181 27.952C254.869 29.4027 256.96 31.472 258.453 34.16C259.989 36.848 260.757 39.984 260.757 43.568ZM249.557 40.688C249.557 38.8107 248.917 37.3173 247.637 36.208C246.357 35.0987 244.757 34.544 242.837 34.544C241.002 34.544 239.445 35.0773 238.165 36.144C236.928 37.2107 236.16 38.7253 235.861 40.688H249.557ZM299.997 52.72V62H294.429C290.461 62 287.368 61.04 285.149 59.12C282.93 57.1573 281.821 53.9787 281.821 49.584V35.376H277.469V26.288H281.821V17.584H292.765V26.288H299.933V35.376H292.765V49.712C292.765 50.7787 293.021 51.5467 293.533 52.016C294.045 52.4853 294.898 52.72 296.093 52.72H299.997ZM322.349 62.512C318.85 62.512 315.693 61.7653 312.877 60.272C310.104 58.7787 307.906 56.6453 306.285 53.872C304.706 51.0987 303.917 47.856 303.917 44.144C303.917 40.4747 304.728 37.2533 306.349 34.48C307.97 31.664 310.189 29.5093 313.005 28.016C315.821 26.5227 318.978 25.776 322.477 25.776C325.976 25.776 329.133 26.5227 331.949 28.016C334.765 29.5093 336.984 31.664 338.605 34.48C340.226 37.2533 341.037 40.4747 341.037 44.144C341.037 47.8133 340.205 51.056 338.541 53.872C336.92 56.6453 334.68 58.7787 331.821 60.272C329.005 61.7653 325.848 62.512 322.349 62.512ZM322.349 53.04C324.44 53.04 326.21 52.272 327.661 50.736C329.154 49.2 329.901 47.0027 329.901 44.144C329.901 41.2853 329.176 39.088 327.725 37.552C326.317 36.016 324.568 35.248 322.477 35.248C320.344 35.248 318.573 36.016 317.165 37.552C315.757 39.0453 315.053 41.2427 315.053 44.144C315.053 47.0027 315.736 49.2 317.101 50.736C318.509 52.272 320.258 53.04 322.349 53.04ZM357.787 31.344C358.854 29.68 360.326 28.336 362.203 27.312C364.08 26.288 366.278 25.776 368.795 25.776C371.739 25.776 374.406 26.5227 376.795 28.016C379.184 29.5093 381.062 31.6427 382.427 34.416C383.835 37.1893 384.539 40.4107 384.539 44.08C384.539 47.7493 383.835 50.992 382.427 53.808C381.062 56.5813 379.184 58.736 376.795 60.272C374.406 61.7653 371.739 62.512 368.795 62.512C366.32 62.512 364.123 62 362.203 60.976C360.326 59.952 358.854 58.6293 357.787 57.008V79.024H346.843V26.288H357.787V31.344ZM373.403 44.08C373.403 41.3493 372.635 39.216 371.099 37.68C369.606 36.1013 367.75 35.312 365.531 35.312C363.355 35.312 361.499 36.1013 359.963 37.68C358.47 39.2587 357.723 41.4133 357.723 44.144C357.723 46.8747 358.47 49.0293 359.963 50.608C361.499 52.1867 363.355 52.976 365.531 52.976C367.707 52.976 369.563 52.1867 371.099 50.608C372.635 48.9867 373.403 46.8107 373.403 44.08Z" fill="#0B0A12"/>
<g clip-path="url(#clip0_2_7)">
<path opacity="0.7" d="M402.275 142.086C393.773 141.56 385.182 141.21 376.68 140.771C373.875 140.596 371.07 140.596 368.178 140.508C362.042 140.333 355.906 140.158 349.858 140.07C346.439 139.982 343.021 139.895 339.602 139.807C338.638 139.807 337.586 139.807 336.622 139.807C334.431 139.807 332.152 139.807 329.96 139.807C319.88 139.807 309.8 139.807 299.719 139.807C297.353 139.807 294.899 139.895 292.532 139.895C286.571 139.982 280.611 140.07 274.738 140.158C267.989 140.245 261.327 140.245 254.578 140.421C243.708 140.684 232.839 140.947 222.058 141.21C215.747 141.385 209.523 141.473 203.212 141.736C192.431 142.174 181.561 142.612 170.78 143.05C164.907 143.313 158.947 143.489 153.074 143.839C141.766 144.453 130.547 145.066 119.327 145.68C113.366 146.031 107.406 146.294 101.445 146.82C90.3133 147.784 79.1812 148.66 67.9615 149.624C65.5948 149.8 63.1405 150.063 60.7738 150.238C55.9528 150.676 51.1318 151.29 46.3985 151.816C46.1355 151.816 45.7849 151.903 45.522 151.903C44.9084 152.079 44.4701 152.342 44.0318 152.78C43.3306 153.481 42.98 154.358 42.98 155.234C42.98 156.111 43.3306 156.987 43.9442 157.601C44.5578 158.215 45.522 158.653 46.3108 158.565C52.096 157.952 57.8812 157.25 63.6664 156.724C69.0133 156.286 74.4479 155.848 79.7948 155.322C85.6676 154.796 91.5405 154.358 97.4133 153.832C99.78 153.657 102.147 153.394 104.513 153.218C113.629 152.692 122.833 152.254 131.949 151.728C137.647 151.378 143.344 151.115 149.042 150.764C151.408 150.676 153.775 150.501 156.142 150.413C165.17 150.063 174.286 149.712 183.315 149.361C188.837 149.186 194.271 148.923 199.794 148.748C201.634 148.66 203.475 148.573 205.316 148.573C215.133 148.31 224.863 148.134 234.68 147.871C240.115 147.784 245.637 147.608 251.071 147.521C253 147.433 254.928 147.433 256.944 147.433C267.024 147.345 277.105 147.258 287.273 147.082C293.584 146.995 299.895 146.995 306.206 146.995C316.9 146.995 327.681 147.082 338.375 147.082C340.479 147.082 342.582 147.17 344.686 147.258C350.647 147.433 356.52 147.608 362.48 147.784C366.95 147.959 371.333 148.047 375.803 148.134C378.959 148.222 382.115 148.485 385.27 148.66C394.561 149.186 403.765 149.712 413.057 150.238C415.423 150.413 417.79 150.589 420.069 150.764C422.611 150.939 425.153 151.115 427.607 151.378C427.958 151.465 428.396 151.553 428.747 151.64C429.711 151.816 430.675 151.816 431.552 151.29C432.34 150.852 432.954 149.975 433.217 149.099C433.743 147.17 432.603 145.154 430.675 144.54C429.01 144.102 427.257 143.927 425.503 143.752C424.276 143.664 423.137 143.489 421.91 143.401C419.631 143.138 417.352 143.05 414.985 142.875C410.865 142.524 406.57 142.349 402.275 142.086Z" fill="#5143D9"/>
</g>
<path d="M42.88 97.072V142H31.936V123.504H14.912V142H3.968V97.072H14.912V114.672H31.936V97.072H42.88ZM67.0365 142.512C63.5378 142.512 60.3805 141.765 57.5645 140.272C54.7912 138.779 52.5938 136.645 50.9725 133.872C49.3938 131.099 48.6045 127.856 48.6045 124.144C48.6045 120.475 49.4152 117.253 51.0365 114.48C52.6578 111.664 54.8765 109.509 57.6925 108.016C60.5085 106.523 63.6658 105.776 67.1645 105.776C70.6632 105.776 73.8205 106.523 76.6365 108.016C79.4525 109.509 81.6712 111.664 83.2925 114.48C84.9138 117.253 85.7245 120.475 85.7245 124.144C85.7245 127.813 84.8925 131.056 83.2285 133.872C81.6072 136.645 79.3672 138.779 76.5085 140.272C73.6925 141.765 70.5352 142.512 67.0365 142.512ZM67.0365 133.04C69.1272 133.04 70.8978 132.272 72.3485 130.736C73.8418 129.2 74.5885 127.003 74.5885 124.144C74.5885 121.285 73.8632 119.088 72.4125 117.552C71.0045 116.016 69.2552 115.248 67.1645 115.248C65.0312 115.248 63.2605 116.016 61.8525 117.552C60.4445 119.045 59.7405 121.243 59.7405 124.144C59.7405 127.003 60.4232 129.2 61.7885 130.736C63.1965 132.272 64.9458 133.04 67.0365 133.04ZM111.435 132.72V142H105.867C101.899 142 98.8052 141.04 96.5865 139.12C94.3678 137.157 93.2585 133.979 93.2585 129.584V115.376H88.9065V106.288H93.2585V97.584H104.203V106.288H111.371V115.376H104.203V129.712C104.203 130.779 104.459 131.547 104.971 132.016C105.483 132.485 106.336 132.72 107.531 132.72H111.435ZM151.194 123.568C151.194 124.592 151.131 125.659 151.003 126.768H126.235C126.405 128.987 127.109 130.693 128.347 131.888C129.627 133.04 131.184 133.616 133.019 133.616C135.749 133.616 137.648 132.464 138.715 130.16H150.363C149.765 132.507 148.677 134.619 147.099 136.496C145.563 138.373 143.621 139.845 141.275 140.912C138.928 141.979 136.304 142.512 133.403 142.512C129.904 142.512 126.789 141.765 124.059 140.272C121.328 138.779 119.195 136.645 117.659 133.872C116.123 131.099 115.355 127.856 115.355 124.144C115.355 120.432 116.101 117.189 117.595 114.416C119.131 111.643 121.264 109.509 123.995 108.016C126.725 106.523 129.861 105.776 133.403 105.776C136.859 105.776 139.931 106.501 142.619 107.952C145.307 109.403 147.397 111.472 148.891 114.16C150.427 116.848 151.194 119.984 151.194 123.568ZM139.995 120.688C139.995 118.811 139.355 117.317 138.075 116.208C136.795 115.099 135.195 114.544 133.275 114.544C131.44 114.544 129.883 115.077 128.603 116.144C127.365 117.211 126.597 118.725 126.299 120.688H139.995ZM167.912 94.64V142H156.968V94.64H167.912ZM190.371 142.512C187.256 142.512 184.483 141.979 182.051 140.912C179.619 139.845 177.699 138.395 176.291 136.56C174.883 134.683 174.094 132.592 173.923 130.288H184.739C184.867 131.525 185.443 132.528 186.467 133.296C187.491 134.064 188.75 134.448 190.243 134.448C191.608 134.448 192.654 134.192 193.379 133.68C194.147 133.125 194.531 132.421 194.531 131.568C194.531 130.544 193.998 129.797 192.931 129.328C191.864 128.816 190.136 128.261 187.747 127.664C185.187 127.067 183.054 126.448 181.347 125.808C179.64 125.125 178.168 124.08 176.931 122.672C175.694 121.221 175.075 119.28 175.075 116.848C175.075 114.8 175.63 112.944 176.739 111.28C177.891 109.573 179.555 108.229 181.731 107.248C183.95 106.267 186.574 105.776 189.603 105.776C194.083 105.776 197.603 106.885 200.163 109.104C202.766 111.323 204.259 114.267 204.643 117.936H194.531C194.36 116.699 193.806 115.717 192.867 114.992C191.971 114.267 190.776 113.904 189.283 113.904C188.003 113.904 187.022 114.16 186.339 114.672C185.656 115.141 185.315 115.803 185.315 116.656C185.315 117.68 185.848 118.448 186.915 118.96C188.024 119.472 189.731 119.984 192.035 120.496C194.68 121.179 196.835 121.861 198.499 122.544C200.163 123.184 201.614 124.251 202.851 125.744C204.131 127.195 204.792 129.157 204.835 131.632C204.835 133.723 204.238 135.6 203.043 137.264C201.891 138.885 200.206 140.165 197.987 141.104C195.811 142.043 193.272 142.512 190.371 142.512ZM246.853 105.904C251.034 105.904 254.362 107.269 256.837 110C259.354 112.688 260.613 116.4 260.613 121.136V142H249.733V122.608C249.733 120.219 249.114 118.363 247.877 117.04C246.64 115.717 244.976 115.056 242.885 115.056C240.794 115.056 239.13 115.717 237.893 117.04C236.656 118.363 236.037 120.219 236.037 122.608V142H225.093V106.288H236.037V111.024C237.146 109.445 238.64 108.208 240.517 107.312C242.394 106.373 244.506 105.904 246.853 105.904ZM301.882 123.568C301.882 124.592 301.818 125.659 301.69 126.768H276.922C277.093 128.987 277.797 130.693 279.034 131.888C280.314 133.04 281.871 133.616 283.706 133.616C286.437 133.616 288.335 132.464 289.402 130.16H301.05C300.453 132.507 299.365 134.619 297.786 136.496C296.25 138.373 294.309 139.845 291.962 140.912C289.615 141.979 286.991 142.512 284.09 142.512C280.591 142.512 277.477 141.765 274.746 140.272C272.015 138.779 269.882 136.645 268.346 133.872C266.81 131.099 266.042 127.856 266.042 124.144C266.042 120.432 266.789 117.189 268.282 114.416C269.818 111.643 271.951 109.509 274.682 108.016C277.413 106.523 280.549 105.776 284.09 105.776C287.546 105.776 290.618 106.501 293.306 107.952C295.994 109.403 298.085 111.472 299.578 114.16C301.114 116.848 301.882 119.984 301.882 123.568ZM290.682 120.688C290.682 118.811 290.042 117.317 288.762 116.208C287.482 115.099 285.882 114.544 283.962 114.544C282.127 114.544 280.57 115.077 279.29 116.144C278.053 117.211 277.285 118.725 276.986 120.688H290.682ZM305.48 124.08C305.48 120.411 306.162 117.189 307.528 114.416C308.936 111.643 310.834 109.509 313.224 108.016C315.613 106.523 318.28 105.776 321.224 105.776C323.741 105.776 325.938 106.288 327.816 107.312C329.736 108.336 331.208 109.68 332.232 111.344V106.288H343.176V142H332.232V136.944C331.165 138.608 329.672 139.952 327.752 140.976C325.874 142 323.677 142.512 321.16 142.512C318.258 142.512 315.613 141.765 313.224 140.272C310.834 138.736 308.936 136.581 307.528 133.808C306.162 130.992 305.48 127.749 305.48 124.08ZM332.232 124.144C332.232 121.413 331.464 119.259 329.928 117.68C328.434 116.101 326.6 115.312 324.424 115.312C322.248 115.312 320.392 116.101 318.856 117.68C317.362 119.216 316.616 121.349 316.616 124.08C316.616 126.811 317.362 128.987 318.856 130.608C320.392 132.187 322.248 132.976 324.424 132.976C326.6 132.976 328.434 132.187 329.928 130.608C331.464 129.029 332.232 126.875 332.232 124.144ZM362.037 112.24C363.317 110.277 364.917 108.741 366.837 107.632C368.757 106.48 370.89 105.904 373.237 105.904V117.488H370.229C367.498 117.488 365.45 118.085 364.085 119.28C362.72 120.432 362.037 122.48 362.037 125.424V142H351.093V106.288H362.037V112.24ZM389.412 111.344C390.436 109.68 391.908 108.336 393.828 107.312C395.748 106.288 397.945 105.776 400.42 105.776C403.364 105.776 406.031 106.523 408.42 108.016C410.809 109.509 412.687 111.643 414.052 114.416C415.46 117.189 416.164 120.411 416.164 124.08C416.164 127.749 415.46 130.992 414.052 133.808C412.687 136.581 410.809 138.736 408.42 140.272C406.031 141.765 403.364 142.512 400.42 142.512C397.903 142.512 395.705 142.021 393.828 141.04C391.951 140.016 390.479 138.672 389.412 137.008V142H378.468V94.64H389.412V111.344ZM405.028 124.08C405.028 121.349 404.26 119.216 402.724 117.68C401.231 116.101 399.375 115.312 397.156 115.312C394.98 115.312 393.124 116.101 391.588 117.68C390.095 119.259 389.348 121.413 389.348 124.144C389.348 126.875 390.095 129.029 391.588 130.608C393.124 132.187 394.98 132.976 397.156 132.976C399.332 132.976 401.188 132.187 402.724 130.608C404.26 128.987 405.028 126.811 405.028 124.08ZM458.386 106.288L435.986 158.96H424.21L432.402 140.784L417.873 106.288H430.098L438.354 128.624L446.546 106.288H458.386ZM467.463 142.512C465.543 142.512 463.964 141.957 462.727 140.848C461.532 139.696 460.935 138.288 460.935 136.624C460.935 134.917 461.532 133.488 462.727 132.336C463.964 131.184 465.543 130.608 467.463 130.608C469.34 130.608 470.876 131.184 472.071 132.336C473.308 133.488 473.927 134.917 473.927 136.624C473.927 138.288 473.308 139.696 472.071 140.848C470.876 141.957 469.34 142.512 467.463 142.512Z" fill="#0B0A12"/>
<defs>
<clipPath id="clip0_2_7">
<rect width="390.5" height="21.5" fill="white" transform="translate(42.98 138.48)"/>
</clipPath>
</defs>
</svg>
