<svg width="38" height="37" viewBox="0 0 38 37" fill="none" xmlns="http://www.w3.org/2000/svg">
<g clip-path="url(#clip0_2_46)">
<path d="M14.4037 2.33067C12.3593 2.33067 10.4375 2.84178 8.63837 3.864C6.83926 4.88622 5.42859 6.27644 4.40637 8.03467C3.38415 9.79289 2.87304 11.6942 2.87304 13.7387V16.0693H5.20371C5.85793 16.0693 6.40993 16.2942 6.85971 16.744C7.30948 17.1938 7.53437 17.7458 7.53437 18.4V25.2693C7.53437 25.9236 7.30948 26.4756 6.85971 26.9253C6.40993 27.3751 5.85793 27.6 5.20371 27.6H2.87304C2.21882 27.6 1.68726 27.3751 1.27837 26.9253C0.869484 26.4756 0.665039 25.9236 0.665039 25.2693V13.7387C0.665039 11.2853 1.27837 8.99555 2.50504 6.86933C3.73171 4.74311 5.38771 3.06667 7.47304 1.84C9.55837 0.613333 11.8686 -1.90735e-06 14.4037 -1.90735e-06C16.9388 -1.90735e-06 19.249 0.613333 21.3344 1.84C23.4197 3.06667 25.0962 4.74311 26.3637 6.86933C27.6313 8.99555 28.265 11.2853 28.265 13.7387V27.6C28.265 29.1538 27.6926 30.5031 26.5477 31.648C25.4028 32.7929 24.0535 33.3653 22.4997 33.3653H17.593C17.3477 33.6924 17.041 33.9582 16.673 34.1627C16.305 34.3671 15.9166 34.4693 15.5077 34.4693H13.2997C12.6455 34.4693 12.0935 34.2444 11.6437 33.7947C11.1939 33.3449 10.969 32.8133 10.969 32.2C10.969 31.5867 11.1939 31.0551 11.6437 30.6053C12.0935 30.1556 12.6455 29.9307 13.2997 29.9307H15.5077C15.9166 29.9307 16.305 30.0329 16.673 30.2373C17.041 30.4418 17.3477 30.7076 17.593 31.0347H22.4997C23.3993 31.0347 24.1966 30.7076 24.8917 30.0533C25.5868 29.3991 25.9344 28.5813 25.9344 27.6H23.6037C22.9495 27.6 22.3975 27.3751 21.9477 26.9253C21.4979 26.4756 21.273 25.9236 21.273 25.2693V18.4C21.273 17.7458 21.4979 17.1938 21.9477 16.744C22.3975 16.2942 22.9495 16.0693 23.6037 16.0693H25.9344V13.7387C25.9344 11.6942 25.4233 9.79289 24.401 8.03467C23.3788 6.27644 21.9682 4.88622 20.169 3.864C18.3699 2.84178 16.4482 2.33067 14.4037 2.33067Z" fill="#D6293E"/>
</g>
<defs>
<clipPath id="clip0_2_46">
<rect width="36.81" height="36.8" fill="white" transform="matrix(1 0 0 -1 0.660034 36.8)"/>
</clipPath>
</defs>
</svg>
