<svg width="163" height="164" viewBox="0 0 163 164" fill="none" xmlns="http://www.w3.org/2000/svg">
<path d="M145.6 66.33C144.7 66.03 144 66.53 143.5 65.93C143 65.23 142.5 64.43 142.5 63.53C142.5 60.43 142.6 57.33 142.5 54.23C142.5 53.53 142.8 52.93 143 52.33C143.8 50.73 144.6 49.13 145.7 47.83C146.2 47.23 146.9 46.63 147.7 46.33C148.1 46.13 148.5 46.73 149 46.23C149.4 45.83 150 46.93 150.6 46.93C151 47.93 150.2 48.43 149.6 49.03C150.3 49.33 151 49.33 151.7 49.73C152.3 50.13 152.9 50.43 152.7 51.23C152.5 52.23 153.3 52.53 153.7 53.13C153.5 53.43 153.1 53.53 153.2 53.93C154.4 57.13 153.5 59.33 152.5 62.03C152.2 62.73 151.8 63.63 151.8 64.23C151.7 65.73 150.6 66.93 150.4 68.33C150.2 69.43 149.5 70.03 148.3 69.93C148.1 69.93 147.9 70.43 147.3 70.33C147.1 70.13 146.6 69.83 146.6 69.53C146.6 68.53 146.5 67.83 145.5 67.43C145.5 67.33 145.6 66.73 145.6 66.33Z" fill="#F7C32E"/>
<path d="M94.3 143.63C95.4 143.93 96.7 143.13 97.5 144.33C97.1 145.03 96.8 145.73 96.5 146.43C97 146.93 97.2 146.63 97.7 146.53C99.3 145.93 99.7 146.13 100.2 147.73C100.3 147.93 100.2 148.33 100.5 148.33C102.3 148.73 101.9 150.53 102.6 151.53C101.8 152.43 103.1 153.33 102.7 154.13C102.2 154.93 102.4 156.13 101.4 156.73C101.1 156.93 101.3 157.23 101.2 157.43C100.9 159.53 100 161.13 97.8 161.83C97.5 161.93 97.4 162.43 96.8 162.23C96.5 161.63 96.2 160.93 95.8 160.33C95.3 160.13 94.3 160.63 94.4 159.33H91.4C91.2 157.93 91.4 156.43 90.3 155.43C90.2 155.33 90.2 155.03 90.3 154.93C91 153.73 90.5 152.33 91 151.13C91.3 150.53 91.4 150.13 91.1 149.53C90.2 148.23 91.1 147.13 91.8 146.23C92.5 145.13 93.4 144.43 94.3 143.63Z" fill="#F7C32E"/>
<path d="M119.6 77.43C119.2 78.23 118.5 78.03 117.6 78.23C117.8 79.33 117.2 80.43 118.1 81.53C117.3 81.53 117.3 81.53 116.9 81.23C116.3 81.53 116.1 82.23 115.7 82.83C115.8 80.93 115.1 79.63 113.7 78.73C113.1 78.63 113 79.03 112.7 79.23C111.7 77.33 111.7 76.43 112.5 71.53C112.9 69.03 114.2 66.93 116.1 64.73C116.7 64.63 117.6 66.23 118.4 64.73C119.2 66.23 117.7 67.03 117.6 68.43C118.4 68.03 119.2 67.73 120 68.03C120.4 68.43 119.9 69.03 120.3 69.43C121.1 70.03 121.7 70.73 120.7 71.73C121.8 72.53 120.4 73.23 120.6 74.13C120.8 74.93 120.6 75.83 120.6 76.63C119.8 76.43 119.6 75.53 118.8 75.63C118.2 76.53 119.5 76.63 119.6 77.43Z" fill="#F7C32E"/>
<path d="M25 131.13C24.7 130.53 23.8 130.83 23.3 130.63V129.43C23.2 129.33 23.2 129.23 23.1 129.23C21.7 129.73 20.9 128.23 19.7 128.03C18.5 127.93 17.8 127.03 17.6 125.83C17.5 125.33 17.7 125.03 18.1 124.73C16.1 123.03 17.3 121.33 18 119.63C18.8 117.43 20.6 117.13 22.6 117.23C23 118.33 22.8 119.23 22 119.93C23.5 120.93 24 119.43 25 119.13C25.3 119.73 25.6 120.33 25.9 120.73C25.9 121.33 25.1 121.53 25.5 122.13C26.2 122.93 26.4 121.63 27.2 121.83C28.2 122.73 28.1 124.03 28 125.23C28.4 125.33 28.6 125.43 29 125.53C28.9 126.13 28 126.33 28 127.03C28 127.83 28.8 127.23 29 127.73C27.7 128.93 26.9 130.43 25 131.13Z" fill="#F7C32E"/>
<path d="M84.9 95.13H87C87.4 95.53 87.3 96.73 86.7 97.93C87.9 98.93 88.4 97.43 89.1 97.13C89.9 97.13 89.9 97.73 90.3 97.83C90.5 98.63 89.6 98.73 89.9 99.53C90.4 99.83 91.6 99.53 91.8 100.43C92 101.13 92.1 101.93 91.3 102.53C91.6 102.63 91.9 102.73 92.2 102.83C92.1 103.53 91.1 104.13 91.7 105.03C90.6 106.53 88.7 107.13 87.3 108.33C87 108.53 86.5 109.33 85.8 108.83C85.5 108.43 86.2 108.43 86.1 108.03C85.4 107.53 84.5 108.13 83.7 107.73C83.5 107.13 83.8 106.33 82.9 105.93C81.8 106.43 80.7 106.63 79.7 105.13C81 104.33 82.7 104.03 82.9 102.13C81.9 102.13 81.2 103.03 80.2 103.13C80 102.93 79.7 102.73 79.4 102.43C79.3 102.33 79.5 102.33 79.6 102.13C80.2 101.03 82 101.13 82.1 99.63C83.3 99.13 83.2 97.93 83.4 97.13C83.8 96.43 84.3 95.83 84.9 95.13Z" fill="#F7C32E"/>
<path d="M41.2 154.03C41.5 153.33 42.1 153.23 41.6 152.43C41.3 152.13 40.5 152.63 39.8 152.23C39.8 152.03 39.7 151.83 39.7 151.53C39.6 151.43 39.5 151.33 39.4 151.53C39.1 151.93 38.7 151.93 38.3 151.93C37 151.93 36.8 151.53 36.7 150.23C36.7 149.63 37.1 149.43 37.2 148.83C36.8 148.83 36.4 148.73 35.8 148.73C35.4 146.83 36.5 145.13 36.9 143.33C37.1 142.43 38.5 142.03 39.6 142.03C40 142.23 39.9 142.63 39.9 142.73C40.1 143.13 40.2 143.03 40.3 142.83C40.9 142.33 41.6 142.23 42 142.93C42.5 143.63 43.1 143.53 43.8 143.63C44.2 144.03 43.9 144.43 44 144.83C44.3 145.23 44.8 145.03 45.3 145.13C46.3 145.83 45.8 147.23 46.6 148.03C43.8 152.43 43.1 153.23 41.2 154.03Z" fill="#F7C32E"/>
<path d="M70.9 43.53C70.6 42.13 69.7 41.73 68.3 42.03C67.1 39.73 67.5 37.23 67.8 34.83C67.9 34.33 68.2 33.73 68.1 33.13C67.9 32.03 68.6 31.23 68.7 30.23C68.8 29.53 70 29.33 70.7 28.93C71.6 29.73 71.6 29.73 71.9 30.93C72.2 30.93 72.5 30.93 72.3 30.93C73.6 30.93 73.1 31.83 73.6 32.13C73.9 32.23 74.4 32.63 74.3 33.13C74.1 33.93 75.3 34.53 74.8 35.23C74.3 35.93 74.6 36.73 74.3 37.33C73.5 38.83 73.3 40.53 72.8 42.13C72.6 43.23 72 43.53 70.9 43.53Z" fill="#F7C32E"/>
<path d="M125.4 118.53C125 118.23 124.8 117.83 124.1 117.73C122.5 117.63 122.5 117.53 122.2 115.83C121.1 115.43 120 115.83 119 116.23C118.5 115.73 118.8 115.33 118.6 114.83C119 114.73 119.3 114.63 119.6 114.43V111.43C119.1 111.63 118.6 111.73 117.9 111.93C117.6 111.93 117.5 111.33 117.1 111.23C117.7 109.73 118.9 108.83 119.9 107.73C121.2 108.03 122.5 106.63 123.7 108.13C123.7 108.23 123.6 109.93 123.7 110.23C123.5 110.23 123.2 110.33 123 110.33C122.8 110.33 122.7 110.33 122.5 110.33C122.1 110.73 122.4 111.43 121.8 111.83C123.1 111.33 124.2 110.83 125.1 109.83C125.5 110.23 125.8 110.63 126.5 110.43C125.4 111.33 126.9 112.53 125.5 113.33C126.5 113.33 126.6 112.73 127 112.53C127.4 112.43 127.8 112.43 128.2 112.33C128.7 113.33 129.3 114.13 128.8 115.33C128.1 115.93 126.6 115.73 126.3 117.43C127.5 117.23 128.2 116.53 128.8 115.93C129.5 116.03 129.5 116.43 129.4 116.73C128.1 116.63 128.2 118.23 127.1 118.63C126.2 118.93 125.5 119.63 124.4 120.43C124.7 119.63 125.1 119.13 125.4 118.53Z" fill="#F7C32E"/>
<path d="M101.7 41.13C101.4 41.43 101.1 41.73 100.8 42.03C101.7 42.63 99.9 43.63 101.2 44.13C99.2 46.43 99.2 46.53 99.1 48.93H96.7C96.5 48.83 96.7 48.43 96.5 48.13C94.1 47.83 93.6 47.33 93.5 44.83C93.5 44.23 93.7 43.43 93 43.03C93.5 42.33 93.2 41.43 93.7 40.63C94.7 39.13 96 37.93 97.2 36.73C97.7 36.53 98.2 36.63 98.6 36.73C98.8 37.73 97.5 38.33 98.4 39.33C98.7 38.93 99 38.53 99.3 38.03C100.2 39.33 101.7 39.63 101.7 41.13Z" fill="#F7C32E"/>
<path d="M140.4 5.52999C140 6.12999 139.2 5.42999 138.9 6.12999C139.6 6.52999 140.4 6.22999 141.2 6.32999C141.5 7.42999 142.1 8.42999 142.5 9.52999C143.4 11.93 142.8 13.93 141.9 16.13C141.5 17.03 141 17.33 140 17.13C139.8 16.63 139.5 15.93 139.1 15.23C138.5 15.03 137.6 15.23 137.2 14.23C137.3 12.53 137.3 10.63 136.1 9.02999C136.5 8.32999 136.8 7.72999 137.2 7.12999C136.9 7.02999 136.6 6.92999 136.2 6.72999C136.4 5.92999 136.7 5.12999 137.5 4.42999H139.7C140 4.72999 140.5 4.92999 140.4 5.52999Z" fill="#F7C32E"/>
<path d="M65.7 68.93C65.3 69.53 64.8 69.33 64.3 69.33C63.1 68.23 63.9 66.43 62.9 65.23C64.4 62.23 64.4 62.23 67 61.03C67.5 61.13 67.8 61.53 68 62.03C68.1 62.63 67.2 62.73 67.5 63.33C68 63.93 68.4 63.53 68.7 63.13C70.2 63.73 69.8 65.63 71.1 66.43C71 67.53 71.3 68.63 70.9 69.63L69 72.33C68.7 72.33 68.3 72.33 68 72.33C67.7 71.83 67.1 70.13 67.2 69.93C66.7 69.73 66.2 69.33 65.7 68.93Z" fill="#F7C32E"/>
<path d="M37.5 69.83C37 70.03 37.5 70.73 37.1 70.83C36.4 71.03 36.1 70.63 35.9 70.23C35.5 69.53 36 68.63 35.7 68.03C35.2 67.33 35.1 66.83 35.6 66.03C36.1 65.43 35.8 64.53 36.2 63.73C37.1 61.73 37.1 61.63 39.2 61.63C39.3 61.73 39.4 61.73 39.4 61.83C39.4 62.13 39.4 62.53 39.4 62.93C40.1 63.33 41.1 63.03 41.5 64.23C41.8 65.13 42.7 65.73 42.5 66.93C42.3 67.83 42.6 68.73 41.7 69.43C41.3 69.83 40.9 70.53 40.9 71.43C40.9 72.03 40.4 72.43 39.7 72.53C39.1 72.63 38.7 72.23 38.5 71.83C38 71.13 37.8 70.43 37.5 69.83Z" fill="#F7C32E"/>
<path d="M53.9 87.93C54.6 87.93 55.3 87.93 56 87.93C56.5 88.23 56.1 88.93 56.4 89.33C56.8 89.63 57.2 89.43 57.6 89.53C58.2 90.73 59 91.93 59.3 93.13C59.7 94.53 59.1 95.83 58.6 97.13C57.6 97.53 57.1 96.73 56.5 96.23C55.8 96.23 55.1 96.23 54.4 96.23C54 95.23 53.6 94.43 52.3 94.73C51.7 94.03 52.5 92.93 51.6 92.43C52.1 91.83 52.5 91.13 52.6 90.33C52.8 89.33 53.2 88.63 53.9 87.93Z" fill="#F7C32E"/>
<path d="M0.0999984 95.83C0.999998 94.53 2.4 94.13 3.9 94.03C4.9 95.23 3.2 95.53 3.1 96.33C4.2 97.33 5.1 95.63 6.2 96.33C6.8 96.93 6 97.13 5.9 97.53C6.3 98.03 6.9 97.53 7.3 97.83C7.7 98.93 7 100.13 7.9 101.13C7.1 101.93 7.2 103.33 6 103.93C4.9 103.73 4.2 102.93 3.4 102.23C2.7 101.63 1.5 101.73 0.799998 100.33C0.999998 99.03 -0.400002 97.53 0.0999984 95.83Z" fill="#F7C32E"/>
<path d="M155.5 91.63C154.6 91.13 153.8 90.93 153.2 90.03C153.6 89.83 154 89.53 154.4 89.33C153.2 88.93 152.3 90.03 151.3 89.33C151.9 88.33 153.1 88.33 153.8 87.63C153.9 87.03 153.5 87.03 153.1 86.93C152.4 86.73 152.2 87.83 151.5 87.43C151.2 87.13 151.1 86.73 151.4 86.53C153.1 85.53 154.4 84.23 155.9 83.03C156.8 82.33 157 82.13 158.4 81.83C158.3 82.33 157.8 82.53 157.5 82.93C158.2 83.63 158.8 83.03 159.4 82.73C159.5 83.83 160.3 84.63 159.9 86.13C158.3 87.53 157.4 89.93 155.5 91.63Z" fill="#F7C32E"/>
</svg>
